<?xml version="1.0"?><svg fill="#000000" xmlns="http://www.w3.org/2000/svg"  viewBox="0 0 30 30" width="30px" height="30px">    <path d="M 11 3 C 6.582 3 3 7.477 3 13 C 3 16.784 4.6811094 20.077391 7.1621094 21.775391 C 6.9911094 20.821391 6.9523594 19.816437 7.0683594 18.773438 C 7.3733594 16.031437 8.6829531 13.353359 10.751953 11.193359 C 11.477953 9.0343594 10.333391 7.7524531 10.275391 7.6894531 C 9.9023906 7.2894531 9.9174531 6.6572969 10.314453 6.2792969 C 10.711453 5.9022969 11.335797 5.9087813 11.716797 6.3007812 C 12.238797 6.8367812 12.84575 7.8959687 12.96875 9.2929688 C 14.39175 8.3119688 15.954734 7.6215312 17.552734 7.2695312 C 16.104734 4.6905313 13.712 3 11 3 z M 19.847656 9 C 17.309241 9.0394783 14.562531 10.195281 12.378906 12.378906 C 8.4969063 16.260906 7.8686562 21.922344 10.972656 25.027344 C 14.076656 28.132344 19.739094 27.503094 23.621094 23.621094 C 27.503094 19.739094 28.132344 14.077656 25.027344 10.972656 C 23.668906 9.6142187 21.821979 8.9692947 19.847656 9 z M 22.240234 12.796875 C 22.785234 12.810875 23.218938 13.252875 23.210938 13.796875 C 23.193938 15.176875 22.129375 18.031891 18.234375 18.962891 C 14.873375 19.767891 14.778344 22.215234 14.777344 22.240234 C 14.764344 22.788234 14.308766 23.223938 13.759766 23.210938 C 13.493766 23.203937 13.254078 23.093922 13.080078 22.919922 C 12.895078 22.734922 12.782062 22.476359 12.789062 22.193359 C 12.821063 20.812359 13.906437 17.954297 17.773438 17.029297 C 21.093438 16.234297 21.218656 13.859766 21.222656 13.759766 C 21.242656 13.215766 21.696234 12.783875 22.240234 12.796875 z"/></svg>