<svg fill="#000000" xmlns="http://www.w3.org/2000/svg"  viewBox="0 0 512 512" width="64px" height="64px"><path d="M 352 24 A 8 8 0 0 0 344.41016 34.529297 L 352.41016 58.529297 A 8 8 0 0 0 360 64 L 368 64 L 368 72 L 256 72 A 8 8 0 0 0 248 80 L 248 104 L 224 104 A 8 8 0 0 0 216 112 L 216 136 L 160.81641 136 A 23.837 23.837 0 0 0 136.9082 157.875 A 236.355 236.355 0 0 0 176.86328 312 A 236.354 236.354 0 0 0 136.91016 466.12305 A 23.837 23.837 0 0 0 160.81641 488 L 348.38477 488 A 23.837 23.837 0 0 0 372.29102 466.125 A 236.356 236.356 0 0 0 332.33594 312 A 236.355 236.355 0 0 0 372.28906 157.87695 A 23.837 23.837 0 0 0 348.38281 136 L 296 136 L 296 112 A 8 8 0 0 0 288 104 L 264 104 L 264 88 L 376 88 A 8 8 0 0 0 384 80 L 384 64 L 392 64 A 8 8 0 0 0 399.58984 58.529297 L 407.58984 34.529297 A 8 8 0 0 0 406.49023 27.322266 A 8 8 0 0 0 400 24 L 352 24 z M 232 120 L 280 120 L 280 136 L 232 136 L 232 120 z M 190.76562 320 L 318.43359 320 A 220.691 220.691 0 0 1 346.97266 378.41016 A 221.483 221.483 0 0 1 356.34961 464.74219 A 8.024 8.024 0 0 1 348.38477 472 L 160.81641 472 A 8.024 8.024 0 0 1 152.84961 464.74219 A 220.438 220.438 0 0 1 190.76562 320 z M 254.59961 366.73438 C 236.72861 366.73438 219.825 367.73402 207 369.54102 C 188.273 372.18402 179.72047 376.15138 177.48047 383.23438 A 204.717 204.717 0 0 0 168.01172 448.11914 A 8 8 0 0 0 176.01172 456 L 333.1875 456 A 8 8 0 0 0 341.1875 448.11914 A 204.717 204.717 0 0 0 331.7168 383.23438 C 329.4778 376.15137 320.92427 372.18302 302.19727 369.54102 C 289.37427 367.73102 272.47061 366.73437 254.59961 366.73438 z"/></svg>