<svg fill="#000000" xmlns="http://www.w3.org/2000/svg"  viewBox="0 0 30 30" width="30px" height="30px"><path d="M8,28h13v-0.05c1.694-0.245,3-1.688,3-3.45c0-0.171-0.027-0.335-0.05-0.5H24l-2.142-9.997L21.85,13.95l-0.02-0.1L21.02,9 h0.904c0.159,0.035,0.769,0.239,1.128,1.316c0.976,2.928,1.968,6.887,1.979,6.926C25.143,17.697,25.551,18,25.999,18 c0.08,0,0.162-0.01,0.243-0.03c0.536-0.134,0.862-0.677,0.728-1.212c-0.041-0.165-1.021-4.072-2.021-7.074 C24.283,7.688,22.829,7.06,22,7h-1V5c0-1.1-0.9-2-2-2H7.77C7.04,3,6.39,3.38,6.03,4.01C5.67,4.65,5.68,5.4,6.05,6.03l1.89,3.16 L5.02,23.8h0.02L5,24h0.04C5.01,24.16,5,24.33,5,24.5c0,1.76,1.31,3.22,3,3.46V28z M7.77,5H19v2.999C19,7.999,19,8,19,8H9.57 L7.77,5z M7.79,24.98c-0.44-0.09-0.75-0.47-0.78-0.9v-0.03L7.02,24l0.57-2.87l0.01-0.01l0.05-0.27L8,19.22L8.48,17H8.42l1.4-7 h0.16H12h7.15l0.25,1.5l0.92,5.5l0.08,0.5h-9.98l-0.79,3.69l-0.65,3.02C8.88,24.68,8.46,25,8,25C7.93,25,7.86,24.99,7.79,24.98z"/></svg>