<?xml version="1.0"?><svg fill="#000000" xmlns="http://www.w3.org/2000/svg"  viewBox="0 0 24 24" width="24px" height="24px">    <path d="M 11 2 C 9.895 2 9 2.895 9 4 L 9 13.021484 C 7.01 14.521484 6.2743281 17.392828 7.8613281 19.798828 C 8.5443281 20.834828 9.6239844 21.591187 10.833984 21.867188 C 14.094984 22.608187 17 20.137 17 17 C 17 15.437 16.246 13.960484 15 13.021484 L 15 12 L 16 12 C 16.552 12 17 11.552 17 11 C 17 10.448 16.552 10 16 10 L 15 10 L 15 8 L 16 8 C 16.552 8 17 7.552 17 7 C 17 6.448 16.552 6 16 6 L 15 6 L 15 4 C 15 2.895 14.105 2 13 2 L 11 2 z M 11 4 L 13 4 L 13 6 L 11 6 L 11 4 z"/></svg>